<?xml version="1.0" encoding="UTF-8" standalone="no"?>
<!DOCTYPE svg PUBLIC "-//W3C//DTD SVG 1.1//EN"
 "http://www.w3.org/Graphics/SVG/1.1/DTD/svg11.dtd">
<!-- Generated by graphviz version 10.0.1 (20240210.2158)
 -->
<!-- Title: G Pages: 1 -->
<svg width="622pt" height="98pt"
 viewBox="0.00 0.00 621.50 98.00" xmlns="http://www.w3.org/2000/svg" xmlns:xlink="http://www.w3.org/1999/xlink">
<g id="graph0" class="graph" transform="scale(1 1) rotate(0) translate(4 94)">
<title>G</title>
<polygon fill="white" stroke="none" points="-4,4 -4,-94 617.5,-94 617.5,4 -4,4"/>
<!-- heroku_addon.papertrail_example -->
<g id="node1" class="node">
<title>heroku_addon.papertrail_example</title>
<polygon fill="none" stroke="black" points="400.25,-90 178.75,-90 178.75,-54 400.25,-54 400.25,-90"/>
<text text-anchor="middle" x="289.5" y="-66.2" font-family="sans-serif" font-size="14.00">heroku_addon.papertrail_example</text>
</g>
<!-- heroku_app.example -->
<g id="node2" class="node">
<title>heroku_app.example</title>
<polygon fill="none" stroke="black" points="142.75,-63 0,-63 0,-27 142.75,-27 142.75,-63"/>
<text text-anchor="middle" x="71.38" y="-39.2" font-family="sans-serif" font-size="14.00">heroku_app.example</text>
</g>
<!-- heroku_addon.papertrail_example&#45;&gt;heroku_app.example -->
<g id="edge1" class="edge">
<title>heroku_addon.papertrail_example&#45;&gt;heroku_app.example</title>
<path fill="none" stroke="black" d="M178.54,-58.26C170.48,-57.26 162.44,-56.25 154.59,-55.27"/>
<polygon fill="black" stroke="black" points="155.11,-51.81 144.75,-54.04 154.24,-58.75 155.11,-51.81"/>
</g>
<!-- heroku_build.example -->
<g id="node3" class="node">
<title>heroku_build.example</title>
<polygon fill="none" stroke="black" points="363.88,-36 215.12,-36 215.12,0 363.88,0 363.88,-36"/>
<text text-anchor="middle" x="289.5" y="-12.2" font-family="sans-serif" font-size="14.00">heroku_build.example</text>
</g>
<!-- heroku_build.example&#45;&gt;heroku_app.example -->
<g id="edge2" class="edge">
<title>heroku_build.example&#45;&gt;heroku_app.example</title>
<path fill="none" stroke="black" d="M214.73,-27.22C195.21,-29.65 174.04,-32.3 154.13,-34.79"/>
<polygon fill="black" stroke="black" points="153.89,-31.29 144.4,-36 154.76,-38.24 153.89,-31.29"/>
</g>
<!-- heroku_formation.example -->
<g id="node4" class="node">
<title>heroku_formation.example</title>
<polygon fill="none" stroke="black" points="613.5,-36 436.25,-36 436.25,0 613.5,0 613.5,-36"/>
<text text-anchor="middle" x="524.88" y="-12.2" font-family="sans-serif" font-size="14.00">heroku_formation.example</text>
</g>
<!-- heroku_formation.example&#45;&gt;heroku_build.example -->
<g id="edge3" class="edge">
<title>heroku_formation.example&#45;&gt;heroku_build.example</title>
<path fill="none" stroke="black" d="M435.98,-18C416.21,-18 395.27,-18 375.62,-18"/>
<polygon fill="black" stroke="black" points="375.73,-14.5 365.73,-18 375.73,-21.5 375.73,-14.5"/>
</g>
</g>
</svg>
